# xmcd CD database file
#
# Track frame offsets:
#	150
#	12299
#	34228
#	67485
#	100305
#	125374
#	148771
#	180404
#	210499
#
# Disc length: 3196 seconds
#
# Revision: 0
# Processed by: cddbd v1.5.2PL0 Copyright (c) Steve Scherf et al.
# Submitted via: CDex 1.70beta2
#
DISCID=820c7a09
DTITLE=Diversity - Jamil Sharif
DYEAR=2012
DGENRE=Jazz
TTITLE0=N Da Pocket
TTITLE1=Heart and Soul
TTITLE2=Been There Done That
TTITLE3=This One's for My Son
TTITLE4=A Mother's Love
TTITLE5=Blues for My Father
TTITLE6=Peace of Mind
TTITLE7=True Love
TTITLE8=Get Yo Party On
EXTD=YEAR: 2012
EXTT0=
EXTT1=
EXTT2=
EXTT3=
EXTT4=
EXTT5=
EXTT6=
EXTT7=
EXTT8=
PLAYORDER=
